<svg width="1208" height="460" viewBox="0 0 1208 460" fill="none" xmlns="http://www.w3.org/2000/svg">
<path d="M0 87C0 38.9512 39.2109 0 87.58 0H1120.42C1168.79 0 1208 38.9512 1208 87C1208 116.623 1193.1 142.789 1170.33 158.5C1193.1 174.211 1208 200.377 1208 230C1208 259.623 1193.1 285.789 1170.33 301.5C1193.1 317.211 1208 343.377 1208 373C1208 421.049 1168.79 460 1120.42 460H87.58C39.2109 460 0 421.049 0 373C0 343.377 14.9043 317.211 37.6702 301.5C14.9043 285.789 0 259.623 0 230C0 200.377 14.9043 174.211 37.6702 158.5C14.9043 142.789 0 116.623 0 87Z" fill="#57ACBC"/>
</svg>
