<svg width="4119" height="818" viewBox="0 0 4119 818" fill="none" xmlns="http://www.w3.org/2000/svg">
<g clip-path="url(#clip0_91_33)">
<path d="M836.5 397.271L832.314 393.082L725.16 310.148L722.059 302.305L672.308 259.456L678.849 228.349L699.497 137.505L669.02 91.417L649.203 121.693L638.315 70.4672L626.716 127.365L614.592 78.8522L597.841 37.8852L586.225 58.3263L537.829 34.1547L445.714 10.8819L465.676 41.3952L437.343 27.6434L299.171 0.640137L341.67 64.0067L202.87 69.0767L229.635 94.7828L165.192 144.491L205.573 161.812L89.8275 211.52L89.8191 211.529H89.8275L149.136 224.093L141.231 247.833L43.7615 313.471L103.782 316.269L21.436 441.96L80.05 434.982L0.5 560.672L80.05 548.099L126.574 535.534L119.135 657.036L184.73 617.935L165.192 743.625L292.198 615.137L261.179 801.811L373.84 722.675L417.805 698.936L462.465 648.66L462.473 648.753L461.812 649.652L464.608 683.175L466.549 684.167L535.042 789.713L581.099 817.64L660.649 745.024L680.569 749.009L681.585 751.552L699.497 660.156L699.268 658.969L699.497 657.808L701.462 654.654L726.245 630.499L730.43 651.449L749.257 623.301L750.934 612.517L755.552 634.688L756.95 647.261L784.401 611.245L793.238 563.165L788.892 544.216L800.22 535.534L807.659 503.41L818.36 478.272L812.776 446.148L836.5 397.271Z" fill="#C51E30"/>
<path d="M796.026 479.671L793.239 515.984L800.22 535.534L807.659 503.41L818.36 478.272L812.777 446.148L796.026 479.671Z" fill="white"/>
<path d="M620.175 144.491L663.445 219.905L659.251 172.418L687.169 141.693L676.002 240.855L699.497 137.505L669.021 91.4169L650.88 129.595L638.315 70.4671L631.342 145.881L614.592 78.8521L597.841 37.8851L588.174 59.2928L537.829 34.1547L445.714 10.8818L604.128 98.8693L620.175 144.491Z" fill="white"/>
<path d="M427.574 208.731L341.043 134.715L303.356 172.418L324.292 249.231L392.218 310.148L413.62 271.58L357.793 254.818L385.702 245.043L360.581 223.83L418.271 234.564L394.082 205.941L367.562 196.166L403.851 198.955L427.574 208.731Z" fill="white"/>
<path d="M205.039 380.509L148.908 391.683L254.511 277.167L261.179 190.579L119.135 345.595L102.384 506.208L121.609 529.947L162.396 468.496L125.337 446.148L167.98 458.721L205.039 380.509Z" fill="white"/>
<path d="M671.816 672.399L576.914 541.74L565.823 548.887L607.619 610.948C607.619 610.948 590.868 742.226 589.479 743.625L597.85 617.934L553.207 557.018L551.614 558.044L546.209 647.261L563.476 699.088C564.027 700.47 564.357 701.42 564.357 701.734L563.476 699.088C559.053 688.041 539.236 647.261 539.236 647.261V566.022L514.911 581.698L512.115 592.635L521.087 648.651L530.856 696.138L518.291 650.05L508.522 592.788L509.141 585.412L508.522 585.81L461.812 649.66L464.6 683.175L542.167 722.675L581.091 817.64L638.315 731.052L641.103 650.364L681.577 751.552L699.488 660.156L692.744 624.912L671.808 672.399H671.816Z" fill="white"/>
<path d="M832.315 393.082L725.16 310.156L722.06 302.305L628.546 221.77L560.155 184.992H513.903L487.578 151.477L475.013 112.375L561.544 140.311L620.158 203.161L607.594 150.087L562.934 88.6361L437.326 27.6519L299.171 0.640137L409.426 35.5537L553.182 110.968L394.073 62.0906L202.87 69.0767L395.471 80.2511L89.8191 211.529L188.907 224.102L339.636 123.55L410.815 120.76L430.353 151.486L542.786 221.779L537.168 227.205L487.578 215.725L452.687 190.587L487.578 231.088L537.168 227.205L512.098 251.419L459.66 254.836L290.783 450.362L335.442 331.649L278.218 247.85L226.577 422.426L184.705 617.951L316.98 446.173L304.576 535.551L325.665 564.878L373.815 722.692L456.856 612.364L487.561 517.399L429.87 446.173L431.734 426.622L410.798 450.362L373.815 554.636L401.029 443.375L437.318 395.889L421.965 347.011L466.625 295.336H485.697L466.76 319.135L466.625 319.084L445.689 345.621L468.023 454.558L567.374 510.142L567.399 510.159L543.387 526.488L498.728 500.655L495.94 557.917L454.068 629.143L525.247 550.931L580.955 517.026L607.56 529.549L613.49 526.496L660.946 513.228L628.072 529.989L614.583 550.787L629.936 539.765L638.002 535.577L670.41 521.613L708.096 513.236L699.488 526.505L782.063 506.25L776.48 457.373L756.755 442.528L737.166 427.58L708.088 380.56L761.127 408.496L829.519 409.895L812.768 446.207L836.492 397.33L832.306 393.142L832.315 393.082ZM628.546 256.218C628.546 256.218 624.361 281.356 624.361 282.755L611.796 276.235L602.722 234.573L628.538 256.218H628.546ZM588.072 495.034L546.2 481.07L585.276 482.469L648.084 363.756L628.546 341.407L588.072 345.596L550.081 319.059L518.291 316.269L525.12 313.734L580.023 269.495L649.804 296.032V305.807L641.433 311.394L636.841 307.715L643.907 321.848L687.169 349.784L588.072 495.025V495.034Z" fill="white"/>
<path d="M786.926 520.104L690.855 543.919L628.462 560.333L609.407 560.477L599.366 556.331L609.534 563.758L627.115 580.503L632.342 585.734L651.846 603.428L661.514 608.651L658.302 609.905L662.988 613.695L680.331 625.005L694.718 619.104L702.106 649.584L727.88 623.793L732.574 645.082L747.672 624.505L752.044 605.683L759.432 641.563L781.156 612.067L789.172 567.336L783.758 542.206L786.926 520.104Z" fill="white"/>
</g>
<g clip-path="url(#clip1_91_33)">
<path d="M1073.64 347.24H901.718V221.222H1050.5V213.894H901.718V92.1201H1067.85V84.792H894.006V354.56H1073.64V347.24Z" fill="black"/>
<path d="M1217.42 355.712C1238.75 355.712 1256.22 352.569 1269.85 346.266C1283.46 339.972 1293.49 331.686 1299.91 321.41C1306.33 311.134 1309.55 300.087 1309.55 288.268C1309.55 274.392 1306.46 263.217 1300.29 254.737C1294.12 246.257 1285.9 239.513 1275.62 234.506C1265.35 229.499 1254.16 225.391 1242.08 222.171C1230 218.96 1217.86 215.877 1205.65 212.92C1193.44 209.972 1182.2 206.244 1171.93 201.746C1161.65 197.256 1153.43 191.088 1147.26 183.252C1141.09 175.415 1138.01 164.944 1138.01 151.847C1138.01 140.545 1140.96 130.328 1146.87 121.213C1152.78 112.097 1161.9 104.777 1174.24 99.2452C1186.58 93.7216 1202.12 90.9598 1220.88 90.9598C1232.96 90.9598 1245.55 92.8829 1258.66 96.7376C1271.77 100.592 1283.72 106.506 1294.5 114.469L1298.74 108.302C1288.97 100.855 1277.09 94.8822 1263.08 90.3837C1249.08 85.8936 1234.87 83.6401 1220.48 83.6401C1199.41 83.6401 1182.26 86.8594 1169.02 93.2726C1155.79 99.6942 1146.02 108.047 1139.73 118.324C1133.43 128.6 1130.29 139.656 1130.29 151.465C1130.29 165.596 1133.37 177.033 1139.54 185.768C1145.71 194.502 1153.93 201.373 1164.21 206.388C1174.49 211.395 1185.73 215.445 1197.94 218.528C1210.14 221.612 1222.28 224.637 1234.36 227.585C1246.44 230.541 1257.62 234.269 1267.9 238.759C1278.18 243.258 1286.4 249.425 1292.57 257.253C1298.74 265.089 1301.83 275.434 1301.83 288.277C1301.83 299.324 1298.8 309.414 1292.77 318.53C1286.73 327.654 1277.47 334.906 1265.02 340.302C1252.55 345.699 1236.55 348.393 1217.03 348.393C1197.5 348.393 1180.85 344.928 1164.79 337.989C1148.73 331.051 1136.46 322.571 1127.98 312.557L1122.58 317.564C1131.58 328.611 1144.75 337.735 1162.1 344.928C1179.44 352.12 1197.88 355.721 1217.42 355.721V355.712Z" fill="black"/>
<path d="M1584.77 321.029L1580.15 315.632C1567.81 327.45 1554.32 335.863 1539.67 340.878C1525.02 345.885 1509.47 348.393 1493.03 348.393C1474.53 348.393 1457.31 345.114 1441.38 338.565C1425.44 332.017 1411.56 322.901 1399.74 311.201C1387.92 299.51 1378.74 285.896 1372.19 270.35C1365.64 254.805 1362.36 237.92 1362.36 219.672C1362.36 201.424 1365.64 184.539 1372.19 168.994C1378.74 153.448 1387.92 139.834 1399.74 128.142C1411.56 116.451 1425.44 107.336 1441.38 100.778C1457.31 94.2298 1474.53 90.9512 1493.03 90.9512C1509.47 90.9512 1525.03 93.3995 1539.67 98.2708C1554.33 103.151 1567.82 111.504 1580.15 123.322L1584.77 117.925C1573.21 106.361 1559.46 97.7625 1543.53 92.1033C1527.59 86.4526 1510.76 83.623 1493.03 83.623C1473.24 83.623 1454.93 87.0287 1438.11 93.8316C1421.27 100.643 1406.62 110.208 1394.16 122.543C1381.69 134.878 1371.99 149.263 1365.06 165.706C1358.12 182.15 1354.65 200.136 1354.65 219.655C1354.65 239.174 1358.12 257.168 1365.06 273.603C1372 290.047 1381.69 304.432 1394.16 316.767C1406.62 329.102 1421.27 338.675 1438.11 345.478C1454.93 352.29 1473.25 355.687 1493.03 355.687C1510.76 355.687 1527.59 352.798 1543.53 347.012C1559.46 341.234 1573.21 332.559 1584.77 320.995V321.029Z" fill="black"/>
<path d="M1877.74 273.629C1884.68 257.194 1888.14 239.208 1888.14 219.68C1888.14 200.153 1884.68 182.176 1877.74 165.732C1870.8 149.297 1861.09 134.903 1848.64 122.568C1836.17 110.233 1821.52 100.668 1804.69 93.857C1787.85 87.0541 1769.55 83.6484 1749.76 83.6484C1729.98 83.6484 1711.66 87.0541 1694.83 93.857C1678 100.668 1663.35 110.233 1650.89 122.568C1638.42 134.903 1628.72 149.288 1621.79 165.732C1614.85 182.176 1611.38 200.161 1611.38 219.68C1611.38 239.199 1614.85 257.194 1621.79 273.629C1628.73 290.073 1638.42 304.458 1650.89 316.793C1663.35 329.128 1678 338.701 1694.83 345.504C1711.66 352.315 1729.98 355.712 1749.76 355.712C1769.55 355.712 1787.86 352.307 1804.69 345.504C1821.52 338.701 1836.16 329.128 1848.64 316.793C1861.1 304.458 1870.8 290.073 1877.74 273.629ZM1801.41 338.76C1785.47 345.182 1768.26 348.393 1749.75 348.393C1731.25 348.393 1714.03 345.182 1698.1 338.76C1682.16 332.339 1668.28 323.282 1656.46 311.591C1644.64 299.9 1635.46 286.286 1628.91 270.74C1622.36 255.203 1619.08 238.174 1619.08 219.68C1619.08 201.186 1622.36 184.167 1628.91 168.621C1635.46 153.083 1644.64 139.461 1656.46 127.77C1668.28 116.079 1682.16 107.022 1698.1 100.601C1714.03 94.1789 1731.25 90.9681 1749.75 90.9681C1768.26 90.9681 1785.47 94.1874 1801.41 100.601C1817.34 107.022 1831.22 116.079 1843.04 127.77C1854.86 139.461 1864.05 153.075 1870.6 168.621C1877.15 184.167 1880.43 201.186 1880.43 219.68C1880.43 238.174 1877.15 255.203 1870.6 270.74C1864.05 286.286 1854.86 299.9 1843.04 311.591C1831.22 323.282 1817.34 332.339 1801.41 338.76Z" fill="black"/>
<path d="M2130.61 347.24H1969.87V84.792H1962.15V354.56H2130.61V347.24Z" fill="black"/>
<path d="M2184.49 273.248H2349.64L2387.33 354.56H2396.19L2270.91 84.792H2263.2L2137.92 354.552H2146.79L2184.48 273.239L2184.49 273.248ZM2267.06 95.1191L2346.24 265.919H2187.88L2267.06 95.1191Z" fill="black"/>
<path d="M1066.17 578.775C1054.28 572.455 1041.32 567.279 1027.28 563.263C1013.23 559.256 999.101 555.554 984.907 552.148C970.705 548.759 957.655 544.896 945.774 540.576C933.885 536.255 924.309 530.24 917.064 522.522C909.81 514.813 906.184 504.63 906.184 491.964C906.184 480.849 909.192 470.903 915.217 462.101C921.233 453.307 930.572 446.284 943.232 441.04C955.884 435.796 971.942 433.17 991.39 433.17C1005.9 433.17 1020.95 435.33 1036.54 439.651C1052.12 443.98 1066.87 450.766 1080.76 460.017L1092.34 432.704C1079.38 423.758 1063.94 416.735 1046.03 411.643C1028.12 406.551 1010.06 404.001 991.847 404.001C964.366 404.001 941.834 408.093 924.233 416.269C906.633 424.452 893.591 435.246 885.1 448.673C876.609 462.101 872.364 476.842 872.364 492.888C872.364 510.179 875.991 524.14 883.244 534.789C890.498 545.438 900.065 554.003 911.954 560.484C923.835 566.965 936.885 572.142 951.087 575.996C965.281 579.859 979.484 583.485 993.695 586.874C1007.89 590.271 1020.85 594.211 1032.59 598.675C1044.32 603.157 1053.81 609.248 1061.07 616.966C1068.33 624.684 1071.95 634.867 1071.95 647.524C1071.95 658.02 1068.94 667.594 1062.92 676.226C1056.9 684.868 1047.48 691.738 1034.67 696.83C1021.86 701.921 1005.27 704.471 984.89 704.471C964.51 704.471 943.283 700.693 923.996 693.128C904.701 685.571 889.337 676.226 877.923 665.12L864.491 691.509C876.533 703.861 893.583 713.96 915.657 721.83C937.724 729.7 960.807 733.64 984.89 733.64C1012.68 733.64 1035.44 729.556 1053.19 721.373C1070.94 713.197 1084.14 702.387 1092.78 688.968C1101.42 675.54 1105.75 660.96 1105.75 645.219C1105.75 628.25 1102.11 614.509 1094.87 604.013C1087.61 593.524 1078.04 585.112 1066.16 578.784L1066.17 578.775Z" fill="black"/>
<path d="M1276.63 406.789L1128.45 730.861H1164.11L1202.86 644.288H1383.75L1422.5 730.861H1458.62L1310.44 406.789H1276.63ZM1215.29 616.509L1293.3 442.218L1371.31 616.509H1215.28H1215.29Z" fill="black"/>
<path d="M1749.43 669.619L1540.58 406.789H1512.34V730.861H1546.61V468.066L1754.99 730.861H1783.23V406.789H1749.43V669.619Z" fill="black"/>
<path d="M1837.87 436.423H1951.79V730.861H1986.06V436.423H2099.98V406.789H1837.87V436.423Z" fill="black"/>
<path d="M2413.24 450.774C2397.96 435.957 2379.97 424.469 2359.3 416.286C2338.61 408.11 2316.07 404.019 2291.69 404.019C2267.31 404.019 2244.3 408.11 2223.62 416.286C2202.93 424.469 2184.95 436.042 2169.67 451.003C2154.4 465.973 2142.51 483.408 2134.02 503.317C2125.52 523.225 2121.28 545.066 2121.28 568.821C2121.28 592.576 2125.52 614.425 2134.02 634.333C2142.51 654.242 2154.39 671.677 2169.67 686.647C2184.95 701.616 2203.02 713.197 2223.86 721.364C2244.69 729.548 2267.3 733.631 2291.7 733.631C2316.1 733.631 2338.62 729.548 2359.31 721.364C2379.98 713.189 2397.97 701.693 2413.25 686.875C2428.53 672.058 2440.41 654.632 2448.91 634.562C2457.4 614.501 2461.65 592.593 2461.65 568.821C2461.65 545.049 2457.4 523.149 2448.91 503.079C2440.42 483.018 2428.54 465.583 2413.25 450.766L2413.24 450.774ZM2417.18 622.295C2410.39 638.501 2400.9 652.7 2388.7 664.883C2376.5 677.082 2362.14 686.486 2345.64 693.119C2329.12 699.761 2311.14 703.074 2291.69 703.074C2272.24 703.074 2254.19 699.761 2237.51 693.119C2220.84 686.486 2206.4 677.074 2194.22 664.883C2182.01 652.692 2172.45 638.425 2165.51 622.058C2158.56 605.699 2155.09 587.959 2155.09 568.821C2155.09 549.683 2158.56 531.553 2165.51 515.347C2172.45 499.14 2182.02 484.95 2194.22 472.759C2206.41 460.568 2220.84 451.156 2237.51 444.522C2254.18 437.889 2272.24 434.568 2291.69 434.568C2311.14 434.568 2329.12 437.889 2345.64 444.522C2362.15 451.164 2376.51 460.576 2388.7 472.759C2400.9 484.958 2410.39 499.149 2417.18 515.347C2423.97 531.553 2427.37 549.378 2427.37 568.821C2427.37 588.264 2423.97 606.088 2417.18 622.295Z" fill="black"/>
<path d="M2709.15 578.775C2697.26 572.455 2684.29 567.279 2670.25 563.263C2656.2 559.256 2642.07 555.554 2627.88 552.148C2613.68 548.759 2600.63 544.896 2588.75 540.576C2576.86 536.255 2567.28 530.24 2560.04 522.522C2552.78 514.813 2549.16 504.63 2549.16 491.964C2549.16 480.849 2552.17 470.903 2558.19 462.101C2564.21 453.307 2573.55 446.284 2586.21 441.04C2598.86 435.796 2614.92 433.17 2634.36 433.17C2648.87 433.17 2663.92 435.33 2679.51 439.651C2695.1 443.98 2709.84 450.766 2723.74 460.017L2735.31 432.704C2722.35 423.758 2706.91 416.735 2689 411.643C2671.1 406.551 2653.03 404.001 2634.82 404.001C2607.34 404.001 2584.81 408.093 2567.21 416.269C2549.61 424.452 2536.56 435.246 2528.07 448.673C2519.58 462.101 2515.34 476.842 2515.34 492.888C2515.34 510.179 2518.96 524.14 2526.22 534.789C2533.47 545.438 2543.04 554.003 2554.93 560.484C2566.81 566.965 2579.86 572.142 2594.06 575.996C2608.25 579.859 2622.46 583.485 2636.67 586.874C2650.86 590.271 2663.83 594.211 2675.56 598.675C2687.29 603.157 2696.78 609.248 2704.04 616.966C2711.3 624.684 2714.93 634.867 2714.93 647.524C2714.93 658.02 2711.92 667.594 2705.89 676.226C2699.88 684.868 2690.45 691.738 2677.65 696.83C2664.84 701.921 2648.24 704.471 2627.86 704.471C2607.48 704.471 2586.26 700.693 2566.97 693.128C2547.67 685.571 2532.31 676.226 2520.9 665.12L2507.46 691.509C2519.51 703.861 2536.56 713.96 2558.63 721.83C2580.7 729.7 2603.78 733.64 2627.86 733.64C2655.65 733.64 2678.41 729.556 2696.16 721.373C2713.92 713.197 2727.11 702.387 2735.75 688.968C2744.4 675.54 2748.72 660.96 2748.72 645.219C2748.72 628.25 2745.08 614.509 2737.84 604.013C2730.59 593.524 2721.01 585.112 2709.13 578.784L2709.15 578.775Z" fill="black"/>
<path d="M2893.68 436.423H3007.59V730.861H3041.86V436.423H3155.78V406.789H2893.68V436.423Z" fill="black"/>
<path d="M3244.68 580.859H3412.31V551.699H3244.68V436.423H3432.69V406.789H3210.42V730.861H3439.64V701.227H3244.68V580.859Z" fill="black"/>
<path d="M3563.74 472.759C3576.09 460.568 3590.6 451.156 3607.27 444.522C3623.94 437.889 3642.01 434.568 3661.45 434.568C3680.9 434.568 3697.27 437.575 3713.32 443.599C3729.37 449.614 3744.03 459.416 3757.31 472.996L3779.07 451.24C3764.87 435.5 3747.42 423.69 3726.75 415.82C3706.06 407.949 3683.99 404.019 3660.53 404.019C3637.08 404.019 3613.6 408.11 3592.93 416.286C3572.24 424.469 3554.26 435.957 3538.98 450.774C3523.7 465.592 3511.81 483.027 3503.32 503.088C3494.83 523.158 3490.58 545.066 3490.58 568.829C3490.58 592.593 3494.82 614.509 3503.32 634.571C3511.81 654.64 3523.62 672.067 3538.74 686.884C3553.87 701.701 3571.77 713.197 3592.46 721.373C3613.14 729.557 3635.68 733.64 3660.07 733.64C3684.45 733.64 3706.06 729.633 3726.75 721.601C3747.42 713.579 3764.87 701.693 3779.07 685.952L3757.31 664.196C3744.03 677.785 3729.37 687.655 3713.32 693.822C3697.26 699.998 3679.97 703.082 3661.45 703.082C3642.01 703.082 3623.95 699.77 3607.27 693.128C3590.6 686.494 3576.09 677.082 3563.74 664.891C3551.39 652.7 3541.74 638.501 3534.8 622.303C3527.85 606.097 3524.39 588.272 3524.39 568.829C3524.39 549.386 3527.86 531.562 3534.8 515.355C3541.75 499.149 3551.39 484.958 3563.74 472.767V472.759Z" fill="black"/>
<path d="M4084.7 406.789V551.234H3881.87V406.789H3847.6V730.861H3881.87V581.325H4084.7V730.861H4118.5V406.789H4084.7Z" fill="black"/>
</g>
<defs>
<clipPath id="clip0_91_33">
<rect width="836" height="817" fill="white" transform="translate(0.5 0.640137)"/>
</clipPath>
<clipPath id="clip1_91_33">
<rect width="3254" height="650" fill="white" transform="translate(864.5 83.6401)"/>
</clipPath>
</defs>
</svg>
